HIERARCHY
ROOT Hips
{
	OFFSET 0.00000 0.00000 0.00000
	CHANNELS 6 Xposition Yposition Zposition Zrotation Yrotation Xrotation 
	JOINT LHipJoint
	{
		OFFSET 0 0 0
		CHANNELS 3 Zrotation Yrotation Xrotation
		JOINT LeftUpLeg
		{
			OFFSET 2.36090 -1.39315 1.24752
			CHANNELS 3 Zrotation Yrotation Xrotation
			JOINT LeftLeg
			{
				OFFSET 2.06810 -5.68207 0.00000
				CHANNELS 3 Zrotation Yrotation Xrotation
				JOINT LeftFoot
				{
					OFFSET 2.46631 -6.77613 0.00000
					CHANNELS 3 Zrotation Yrotation Xrotation
					JOINT LeftToeBase
					{
						OFFSET 0.26031 -0.71520 1.99545
						CHANNELS 3 Zrotation Yrotation Xrotation
						End Site
						{
							OFFSET 0.00000 -0.00000 1.05957
						}
					}
				}
			}
		}
	}
	JOINT RHipJoint
	{
		OFFSET 0 0 0
		CHANNELS 3 Zrotation Yrotation Xrotation
		JOINT RightUpLeg
		{
			OFFSET -2.25243 -1.39315 1.24752
			CHANNELS 3 Zrotation Yrotation Xrotation
			JOINT RightLeg
			{
				OFFSET -2.17343 -5.97145 0.00000
				CHANNELS 3 Zrotation Yrotation Xrotation
				JOINT RightFoot
				{
					OFFSET -2.52372 -6.93386 0.00000
					CHANNELS 3 Zrotation Yrotation Xrotation
					JOINT RightToeBase
					{
						OFFSET -0.22538 -0.61923 2.11447
						CHANNELS 3 Zrotation Yrotation Xrotation
						End Site
						{
							OFFSET -0.00000 -0.00000 1.10506
						}
					}
				}
			}
		}
	}
	JOINT LowerBack
	{
		OFFSET 0 0 0
		CHANNELS 3 Zrotation Yrotation Xrotation
		JOINT Spine
		{
			OFFSET 0.01594 2.13103 0.08007
			CHANNELS 3 Zrotation Yrotation Xrotation
			JOINT Spine1
			{
				OFFSET 0.01393 2.09723 0.18338
				CHANNELS 3 Zrotation Yrotation Xrotation
				JOINT Neck
				{
					OFFSET 0 0 0
					CHANNELS 3 Zrotation Yrotation Xrotation
					JOINT Neck1
					{
						OFFSET 0.05351 1.38915 0.32494
						CHANNELS 3 Zrotation Yrotation Xrotation
						JOINT Head
						{
							OFFSET 0.00711 1.45992 -0.21666
							CHANNELS 3 Zrotation Yrotation Xrotation
							End Site
							{
								OFFSET -0.00433 1.47702 -0.11056
							}
						}
					}
				}
				JOINT LeftShoulder
				{
					OFFSET 0 0 0
					CHANNELS 3 Zrotation Yrotation Xrotation
					JOINT LeftArm
					{
						OFFSET 2.87198 0.92249 0.11132
						CHANNELS 3 Zrotation Yrotation Xrotation
						JOINT LeftForeArm
						{
							OFFSET 5.52731 -0.00000 0.00000
							CHANNELS 3 Zrotation Yrotation Xrotation
							JOINT LeftHand
							{
								OFFSET 3.11059 -0.00000 0.00000
								CHANNELS 3 Zrotation Yrotation Xrotation
								JOINT LeftFingerBase
								{
									OFFSET 0 0 0
									CHANNELS 3 Zrotation Yrotation Xrotation
									JOINT LeftHandIndex1
									{
										OFFSET 0.41963 -0.00000 0.00000
										CHANNELS 3 Zrotation Yrotation Xrotation
										End Site
										{
											OFFSET 0.33831 -0.00000 0.00000
										}
									}
								}
								JOINT LThumb
								{
									OFFSET 0 0 0
									CHANNELS 3 Zrotation Yrotation Xrotation
									End Site
									{
										OFFSET 0.34348 -0.00000 0.34348
									}
								}
							}
						}
					}
				}
				JOINT RightShoulder
				{
					OFFSET 0 0 0
					CHANNELS 3 Zrotation Yrotation Xrotation
					JOINT RightArm
					{
						OFFSET -2.94710 0.68072 0.32187
						CHANNELS 3 Zrotation Yrotation Xrotation
						JOINT RightForeArm
						{
							OFFSET -5.25396 -0.00000 -0.00000
							CHANNELS 3 Zrotation Yrotation Xrotation
							JOINT RightHand
							{
								OFFSET -3.10567 -0.00000 0.00000
								CHANNELS 3 Zrotation Yrotation Xrotation
								JOINT RightFingerBase
								{
									OFFSET 0 0 0
									CHANNELS 3 Zrotation Yrotation Xrotation
									JOINT RightHandIndex1
									{
										OFFSET -0.49868 -0.00000 0.00000
										CHANNELS 3 Zrotation Yrotation Xrotation
										End Site
										{
											OFFSET -0.40204 -0.00000 0.00000
										}
									}
								}
								JOINT RThumb
								{
									OFFSET 0 0 0
									CHANNELS 3 Zrotation Yrotation Xrotation
									End Site
									{
										OFFSET -0.40818 -0.00000 0.40818
									}
								}
							}
						}
					}
				}
			}
		}
	}
}
MOTION
Frames: 8
Frame Time: .0083333
2.5522 15.894 23.8936 0 0 0 0 0 0 -21 0 0 0 0 0 0 0 0 0 0 0 0 0 0 21 0 0 0 0 0 0 0 0 0 0 0 0 0 0 0 0 0 0 0 0 0 0 -16 0 0 21 0 0 11 0 0 0 -8 0 0 0 0 0 0 0 0 0 0 0 0 0 0 0 0 0 0 0 0 8 0 0 0 0 0 0 0 0 0 0 0 0 0 0 0 0 0
2.5522 15.8940 23.8936 -143.0710 -75.8046 171.0170 0.0000 0.0000 0.0000 -7.0502 -20.4779 -36.2070 2.5068 9.8502 28.4930 0.3087 7.1942 -15.5207 0.8460 -5.8665 -16.3974 0.0000 0.0000 0.0000 11.9650 37.9435 -35.9426 -2.5078 -9.8521 28.4991 -0.5370 -0.3680 -13.9830 -0.0000 0.0456 -0.1254 -8.1656 -1.9047 -13.1153 1.0656 -2.2122 -8.3799 5.4612 -1.0132 -1.2363 2.8290 -0.4755 -26.6969 10.1748 -5.5866 25.0974 2.4241 -0.8791 13.2324 -0.0000 0.0000 0.0000 -78.0020 0.0960 44.4343 20.1920 -30.8729 -5.6295 -0.0000 0.0000 -41.1151 19.7190 -4.2796 -1.5321 -7.1250 0.0000 -0.0000 -5.2150 25.4320 2.4798 -0.0000 0.0000 0.0000 83.3309 -14.8917 13.4675 -21.3143 32.1934 -6.2166 0.0000 -0.0000 -3.9207 -10.6046 -13.7546 2.5489 7.1250 -0.0000 -0.0000 15.2734 -43.4268 0.6081
2.5581 15.9047 23.8809 -143.1460 -75.7163 171.0890 0.0000 0.0000 0.0000 -7.1119 -20.0618 -36.1416 2.4579 9.7610 28.2061 0.3098 6.9685 -15.3181 0.8701 -5.9474 -16.6317 0.0000 0.0000 0.0000 11.4983 37.6495 -35.9868 -2.5020 -9.8416 28.4653 -0.5239 -1.2737 -14.1924 -0.0014 0.2382 -0.6544 -8.2112 -1.9296 -13.0320 1.1151 -2.2457 -8.3697 5.5374 -1.0256 -1.2625 2.5902 -0.5938 -26.6686 10.1721 -5.6542 25.1440 2.4512 -0.9311 13.2526 0.0000 0.0000 0.0000 -78.0318 -0.0310 43.9707 19.8481 -30.4589 -5.4541 -0.0000 0.0000 -40.7988 20.0517 -4.2168 -1.5373 -7.1250 0.0000 -0.0000 -4.9661 25.4894 2.3539 0.0000 0.0000 0.0000 83.1327 -14.9379 13.4955 -21.5140 32.4235 -6.3233 0.0000 -0.0000 -4.0856 -11.7168 -13.6830 2.8087 7.1250 -0.0000 -0.0000 14.2716 -43.4750 0.5490
2.5640 15.9143 23.8675 -143.3210 -75.6072 171.2620 0.0000 0.0000 0.0000 -7.0210 -20.1011 -35.9168 2.4071 9.6671 27.9052 0.2791 7.2453 -15.1637 0.9122 -6.0859 -17.0338 0.0000 0.0000 0.0000 10.8263 37.6931 -35.9880 -2.4922 -9.8237 28.4076 -0.4972 -2.3830 -14.4007 -0.0004 0.1262 -0.3468 -8.2942 -1.9724 -12.9752 1.2093 -2.2953 -8.3440 5.6794 -1.0452 -1.2534 2.3404 -0.6846 -26.6747 10.1314 -5.6650 25.1941 2.4765 -0.9623 13.2763 -0.0000 0.0000 0.0000 -78.2306 -0.2277 43.2519 19.4233 -29.9413 -5.2405 -0.0000 0.0000 -40.3731 20.1762 -4.2425 -1.5571 -7.1250 0.0000 -0.0000 -4.8718 25.4587 2.3124 -0.0000 0.0000 0.0000 82.7775 -14.9262 13.7237 -21.6855 32.6198 -6.4155 0.0000 -0.0000 -4.2962 -10.2758 -13.9943 2.5103 7.1250 -0.0000 -0.0000 15.6344 -43.6254 0.5445
2.5679 15.9252 23.8543 -143.4420 -75.5479 171.3180 0.0000 0.0000 0.0000 -7.0435 -19.9507 -35.6878 2.3578 9.5747 27.6102 0.2712 7.2383 -15.0460 0.8935 -6.0249 -16.8566 0.0000 0.0000 0.0000 10.2008 37.6358 -35.8576 -2.4804 -9.8021 28.3383 -0.4560 -3.5028 -14.5227 -0.0008 0.1819 -0.4997 -8.2448 -1.9637 -12.8808 1.1819 -2.2907 -8.3028 5.6244 -1.0442 -1.2614 2.3303 -0.7439 -26.6406 10.0428 -5.7101 25.1835 2.4338 -0.9963 13.2625 0.0000 -0.0000 0.0000 -78.0672 -0.2567 42.8177 19.1830 -29.6454 -5.1210 -0.0000 0.0000 -40.3984 20.4157 -4.1302 -1.5356 -7.1250 0.0000 -0.0000 -4.6938 25.5712 2.2150 0.0000 -0.0000 0.0000 82.7223 -14.9800 13.7247 -21.9223 32.8891 -6.5436 0.0000 -0.0000 -4.4642 -11.0926 -13.8234 2.6820 7.1250 -0.0000 -0.0000 14.8634 -43.5462 0.5461
2.5721 15.9345 23.8410 -143.5510 -75.4752 171.3740 0.0000 0.0000 0.0000 -7.0417 -19.8208 -35.4700 2.3102 9.4843 27.3223 0.2585 7.2811 -14.9105 0.8992 -6.0436 -16.9111 0.0000 0.0000 0.0000 9.6478 37.4632 -35.7623 -2.4656 -9.7750 28.2512 -0.4096 -4.5012 -14.5878 -0.0016 0.2564 -0.7045 -8.2328 -1.9716 -12.7942 1.2029 -2.3041 -8.2642 5.6397 -1.0500 -1.2635 2.2237 -0.8134 -26.6257 9.9779 -5.7390 25.1930 2.4206 -1.0276 13.2628 0.0000 0.0000 0.0000 -78.0492 -0.3483 42.2549 18.8759 -29.2641 -4.9700 -0.0000 0.0000 -40.2599 20.6122 -4.0536 -1.5230 -7.1250 0.0000 -0.0000 -4.5471 25.6473 2.1373 0.0000 0.0000 0.0000 82.5620 -15.0102 13.8044 -22.1380 33.1326 -6.6611 0.0000 -0.0000 -4.6443 -11.2327 -13.8371 2.7194 7.1250 -0.0000 -0.0000 14.7436 -43.5747 0.5309
2.5756 15.9437 23.8273 -143.6480 -75.4059 171.4070 0.0000 0.0000 0.0000 -7.0428 -19.6943 -35.2358 2.2637 9.3949 27.0387 0.2469 7.3205 -14.7838 0.9015 -6.0509 -16.9321 0.0000 0.0000 0.0000 9.1285 37.2223 -35.6354 -2.4469 -9.7408 28.1414 -0.3567 -5.4231 -14.5812 -0.0025 0.3257 -0.8950 -8.1939 -1.9662 -12.7077 1.2063 -2.3019 -8.2211 5.6230 -1.0494 -1.2638 2.1628 -0.8732 -26.6039 9.9028 -5.7677 25.1853 2.3953 -1.0567 13.2533 0.0000 -0.0000 0.0000 -77.9954 -0.4249 41.7007 18.5855 -28.9003 -4.8289 -0.0000 0.0000 -40.1844 20.7860 -3.9543 -1.4995 -7.1250 0.0000 -0.0000 -4.4179 25.7483 2.0658 0.0000 -0.0000 0.0000 82.4458 -15.0492 13.8604 -22.3607 33.3823 -6.7833 0.0000 -0.0000 -4.8108 -11.3566 -13.8381 2.7503 7.1250 -0.0000 -0.0000 14.6344 -43.5888 0.5215
2.5784 15.9526 23.8131 -143.7420 -75.3370 171.4270 0.0000 0.0000 0.0000 -7.0498 -19.5556 -34.9964 2.2194 9.3088 26.7663 0.2371 7.3444 -14.6672 0.9010 -6.0494 -16.9278 0.0000 0.0000 0.0000 8.6537 36.8904 -35.4933 -2.4265 -9.7031 28.0204 -0.3009 -6.2347 -14.5036 -0.0036 0.3862 -1.0611 -8.1421 -1.9572 -12.6236 1.2135 -2.2954 -8.1743 5.6034 -1.0471 -1.2597 2.1136 -0.9200 -26.5816 9.8199 -5.7784 25.1677 2.3682 -1.0780 13.2381 -0.0000 -0.0000 0.0000 -77.9418 -0.4828 41.1293 18.3112 -28.5538 -4.6970 -0.0000 0.0000 -40.1630 20.9637 -3.8357 -1.4682 -7.1250 0.0000 -0.0000 -4.2859 25.8701 1.9915 -0.0000 -0.0000 0.0000 82.3346 -15.0893 13.9076 -22.5878 33.6349 -6.9086 0.0000 -0.0000 -4.9540 -11.6659 -13.7899 2.8175 7.1250 -0.0000 -0.0000 14.3470 -43.5747 0.5159
